<svg width="550" height="144" viewBox="0 0 550 144" fill="none" xmlns="http://www.w3.org/2000/svg">
	<g id="icon_top" fill="#61B4E4">
		<path d="M61.21 88.32L95.71 46.84L130.31 88.41C135.002 86.6288 139.982 85.7304 145 85.76C148.791 85.7547 152.568 86.2284 156.24 87.17L185.3 54L162.76 34.23L143 56.8L95.7 0L48.46 56.8L28.69 34.23L6.15002 54L35.29 87.23C39.0312 86.2508 42.8828 85.7568 46.75 85.76C51.6851 85.7331 56.5842 86.6004 61.21 88.32" />
	</g>
	<g fill="white">
		<g id="icon_bottom">
			<path d="M191.73 118.76C187.21 108.42 175.2 92.03 156.22 87.16C152.553 86.225 148.784 85.7547 145 85.76C139.989 85.7338 135.015 86.6321 130.33 88.41C121.56 91.74 115.33 97.59 110.27 102.29C103.63 108.52 100.86 110.69 95.88 110.69C90.9 110.69 88.13 108.52 81.49 102.29C76.44 97.56 70.1 91.65 61.22 88.29C56.5942 86.5702 51.6951 85.7029 46.76 85.73C42.8932 85.7234 39.0416 86.2141 35.3 87.19C16.44 92.16 4.5 108.46 0 118.76L30 131.84L29.94 131.98C30 131.84 36.29 118.44 46.8 118.44C50.62 118.44 53.09 120.44 59.18 126.14C66.94 133.41 77.57 143.37 95.91 143.37C114.25 143.37 124.91 133.37 132.64 126.14C138.73 120.44 141.2 118.44 145.02 118.44C155.53 118.44 161.82 131.84 161.88 131.98L161.82 131.84L191.73 118.76Z" />
		</g>
		<g id="logo_text">
			<path d="M548.39 87C546.46 81.64 542.53 78.36 536.1 77.27C532.61 76.68 527.1 76.32 527.1 76.27C518.98 75.56 517.39 75.27 514.86 74.95C514.44 74.89 511.63 74.62 511.07 72.02C510.925 71.1546 510.864 70.2771 510.89 69.4C510.95 65.11 510.33 62.68 513.27 60.6C515.42 59.08 519.99 59.07 527.8 59.07C532.55 59.07 545.03 59.58 545.03 59.58C545.188 59.5883 545.345 59.564 545.493 59.5086C545.641 59.4533 545.776 59.3681 545.89 59.2583C546.003 59.1485 546.093 59.0166 546.153 58.8706C546.213 58.7247 546.243 58.5679 546.24 58.41V48.04C546.211 47.6979 546.076 47.3733 545.854 47.1116C545.631 46.8499 545.333 46.6641 545 46.58C545 46.58 534 45.37 525.05 45.37C497.05 45.37 495.61 56.37 495.61 69.37C495.61 75.56 495.99 77.55 497.12 80.19C499.12 84.85 501.59 87.44 508.37 88.6C511.05 89.06 517.05 89.65 517.05 89.6C522.91 90.18 526.66 90.47 528.77 90.89C531.12 91.36 533.87 92.66 533.87 97.89C533.87 107.12 533.4 109.21 517.45 108.89C512.7 108.8 496.86 108.23 496.86 108.23C496.703 108.223 496.546 108.249 496.398 108.304C496.251 108.36 496.117 108.446 496.004 108.555C495.89 108.664 495.801 108.796 495.74 108.941C495.679 109.086 495.648 109.243 495.65 109.4V120.24C495.576 120.669 495.663 121.11 495.893 121.479C496.124 121.847 496.482 122.118 496.9 122.24C496.9 122.24 511.11 123.56 520.04 123.56C542.36 123.56 549.89 121.38 549.89 98.87C549.89 92.87 549.53 90.2 548.38 87" />
			<path d="M311 46.45H287.27C286.926 46.4635 286.596 46.5847 286.325 46.7965C286.054 47.0083 285.856 47.2998 285.76 47.63L272.76 101.01C272.63 101.67 272.42 101.67 272.29 101.01L257.69 47.62C257.582 47.29 257.376 47.001 257.098 46.7919C256.821 46.5827 256.487 46.4634 256.14 46.45H233.14C232.818 46.45 232.509 46.5771 232.281 46.8038C232.052 47.0304 231.923 47.3382 231.92 47.66V121.5C231.92 121.824 232.049 122.134 232.277 122.363C232.506 122.591 232.816 122.72 233.14 122.72H244.51C244.835 122.717 245.146 122.589 245.377 122.361C245.608 122.133 245.742 121.825 245.75 121.5V62.58C245.75 62.05 246.11 62.05 246.27 62.58L264.59 121.58C264.703 121.909 264.913 122.196 265.191 122.404C265.469 122.613 265.803 122.733 266.15 122.75H279C279.347 122.735 279.68 122.615 279.957 122.406C280.234 122.197 280.441 121.909 280.55 121.58L296.55 62.44C296.68 62.01 296.98 62.01 296.98 62.44V121.5C296.985 121.824 297.117 122.132 297.347 122.36C297.576 122.588 297.886 122.717 298.21 122.72H311C311.324 122.72 311.634 122.591 311.863 122.363C312.091 122.134 312.22 121.824 312.22 121.5V47.66C312.217 47.3382 312.088 47.0304 311.859 46.8038C311.631 46.5771 311.322 46.45 311 46.45" />
			<path d="M341.18 46.6H328.18C327.856 46.6 327.546 46.7285 327.317 46.9573C327.089 47.1861 326.96 47.4964 326.96 47.82V121.5C326.96 121.824 327.089 122.134 327.317 122.363C327.546 122.591 327.856 122.72 328.18 122.72H341.18C341.504 122.72 341.814 122.591 342.043 122.363C342.271 122.134 342.4 121.824 342.4 121.5V47.81C342.4 47.4864 342.271 47.1761 342.043 46.9473C341.814 46.7185 341.504 46.59 341.18 46.59" />
			<path d="M454.67 44.79C428.5 44.79 421.06 63.24 421.06 84.25C421.06 105.26 428.59 123.76 454.91 123.76C481.23 123.76 488.41 105.25 488.41 84.4C488.41 63.24 481.13 44.79 454.66 44.79M454.91 109.67C440.78 109.67 436.67 98.35 436.67 84.25C436.67 70.15 440.54 58.89 454.67 58.89C469.09 58.89 472.81 70.15 472.81 84.4C472.81 98.35 469.34 109.67 454.92 109.67" />
			<path d="M401.86 93.34H401.97C412.97 89.34 412.35 81.34 412.35 68.2C412.35 60.37 410.83 54.75 406.26 50.88C401.26 46.64 395.16 46.64 382.85 46.64H358.32C358.002 46.6452 357.698 46.7747 357.474 47.0008C357.25 47.2268 357.123 47.5316 357.12 47.85V121.53C357.12 121.69 357.152 121.849 357.213 121.997C357.274 122.145 357.364 122.279 357.477 122.393C357.591 122.506 357.725 122.596 357.873 122.657C358.021 122.718 358.18 122.75 358.34 122.75H371.34C371.658 122.742 371.961 122.61 372.183 122.382C372.406 122.154 372.53 121.848 372.53 121.53V96.13C372.533 95.8099 372.661 95.5036 372.887 95.2773C373.114 95.0509 373.42 94.9226 373.74 94.92H385C385.251 94.9205 385.496 94.9897 385.71 95.12C385.873 95.2408 386.009 95.394 386.11 95.57L401.32 122C401.427 122.22 401.585 122.412 401.78 122.56C402.102 122.665 402.441 122.709 402.78 122.69H417.44C417.599 122.708 417.761 122.687 417.91 122.63C418.06 122.572 418.194 122.48 418.3 122.36C418.372 122.198 418.399 122.021 418.38 121.845C418.361 121.67 418.295 121.502 418.19 121.36L401.81 93.36M396.94 77.7C396.78 79.64 395.21 80.28 393.75 80.35H373.75C373.437 80.3372 373.141 80.2043 372.923 79.9791C372.705 79.7538 372.582 79.4534 372.58 79.14V61.63C372.581 61.486 372.611 61.3437 372.668 61.2113C372.724 61.0789 372.807 60.959 372.91 60.8586C373.013 60.7582 373.135 60.6792 373.269 60.6262C373.403 60.5733 373.546 60.5474 373.69 60.55H382.08C391.78 60.55 393.59 60.55 395.32 62.28C396.88 63.84 396.94 66.48 396.94 72.56V77.7Z" />
		</g>
	</g>
</svg>